<?xml version="1.0" encoding="UTF-8" standalone="no"?>
<svg width="980px" height="400px" viewBox="0 0 980 400" version="1.1" xmlns="http://www.w3.org/2000/svg" xmlns:xlink="http://www.w3.org/1999/xlink">
    <!-- Generator: Sketch 3.6.1 (26313) - http://www.bohemiancoding.com/sketch -->
    <title>icon</title>
    <desc>Created with Sketch.</desc>
    <defs>
        <circle id="path-1" cx="127.785004" cy="128.175003" r="127.785004"></circle>
    </defs>
    <g id="Page-1" stroke="none" stroke-width="1" fill="none" fill-rule="evenodd">
        <path d="M381.920665,131.630005 C404.600143,96.0153239 444.433578,72.3899994 489.785004,72.3899994 C560.358712,72.3899994 617.570007,129.601294 617.570007,200.175003 C617.570007,270.748712 560.358712,327.960007 489.785004,327.960007 C444.101682,327.960007 404.017411,303.987622 381.4255,267.936161 L437.146203,267.936161 L437.146203,131.630005 L381.920665,131.630005 Z" id="Combined-Shape" fill="#3B3B3B"></path>
        <g id="Group-2" transform="translate(362.000000, 72.000000)">
            <mask id="mask-2" fill="white">
                <use xlink:href="#path-1"></use>
            </mask>
            <use id="Oval-1" fill-opacity="0" fill="#3B3B3B" xlink:href="#path-1"></use>
            <g id="Group" mask="url(#mask-2)">
                <g transform="translate(-75.820300, 59.633943)">
                    <path d="M224.965576,136.306156 L70.2828619,136.306156 L70.2828619,0 L224.965576,0 L293.016665,68.1530782 L224.965576,136.300887 Z" id="Rectangle-2" fill="#78AAD6"></path>
                    <path d="M113.827177,136.209291 L113.827177,136.306156 L0,136.306156 L0,0 L113.827177,0 L113.827177,0.096865154 L181.7868,68.1530782 L113.827177,136.209291 Z" id="Combined-Shape" fill="#A8D4AA"></path>
                </g>
            </g>
        </g>
    </g>
</svg>